<svg xmlns="http://www.w3.org/2000/svg" viewBox="100 80 200 200">
  <filter id="b">
    <feGaussianBlur stdDeviation="6"/>
  </filter>
  <path fill="#000" d="M0 0h430v382H0z"/>
  <g filter="url(#b)" stroke-opacity="1" fill="none" stroke-width=".7">
    <path stroke="#336aff" d="M456 379.6q-36.6-1.4-436.2-.3"/>
    <path stroke="#356cff" d="M10.2 372.5q349.9-1.1 393.9 1"/>
    <path stroke="#346bff" d="M389.2 368.4q-303.2.1-383.7.5"/>
    <path stroke="#346cff" d="M405.7 360.1Q136.3 361 34 360"/>
    <path stroke="#f0f" d="M54.6 206.7q29.6 78 226.7-14"/>
    <path stroke="#2f64ff" d="M423.7 409Q296.4 267.4-26 409"/>
    <path stroke="#3267ff" d="M-26 376.6q146-2 482-.8m-482-10.2q355.3-1 443.5.6"/>
    <path stroke="#ffb300" d="M119.6 226.6q94.5-30.5 219.6-117.2"/>
    <path stroke="#346cff" d="M415.3 350.9Q385 357 44 354.9"/>
    <path stroke="#2e61ff" d="M428.6 358.3q-316.2.7-405.6-2.2"/>
    <path stroke="#3770ff" d="M38.4 351.1q307.2 3 358.6-3.3"/>
    <path stroke="#2f64ff" d="M14.9 346.2q52.3.9 384.5.7"/>
    <path stroke="#376eff" d="M456 375.6q0 9.2-425.8 5.7"/>
    <path stroke="#2e62ff" d="M45.6 343.6q302-1.8 410.4 4"/>
    <path stroke="#3468ff" d="M423.2 364q-83-.6-394-.9"/>
    <path stroke="#2c61ff" d="M385.8 336.6q-319.4-1-357 4.3m-5.6-6.6q223.4-1 382.2-1.4"/>
    <path stroke="#ffff7d" d="M288.4 141.4Q237.6 191 109.2 202"/>
    <path stroke="#2958ff" d="M46.4 387.3Q242.5 249.1 436 409"/>
    <path stroke="#2957ff" d="M369.4 397.8Q260.3 237.1 41 387.2"/>
    <path stroke="#f7e433" d="M127 199.4q102.5 2.5 187-75.4"/>
    <path stroke="#3568ff" d="M456 372q-72 6.3-397.5 5.4"/>
    <path stroke="#3c74ff" d="M386.5 383.1q-260.5-2.4-321 .5"/>
    <path stroke="#386cff" d="M25.2 367.6q317.3 5.6 353.2.1"/>
    <path stroke="#2757ff" d="M36.3 330.3q365.3.1 377.3-1.3"/>
    <path stroke="#2f5dff" d="M365.1 402.4Q251.6 227.9 50.6 409"/>
    <path stroke="#2957ff" d="M425.6 348.6q-110.8.6-423.5 0"/>
    <path stroke="red" d="M96.4 239.6q70.5 18 173.2-173.5"/>
    <path stroke="#2f60ff" d="M34 353.3q161.7 1 393.2-.4"/>
    <path stroke="#2f61ff" d="M383.3 340.6q-172.5 4.7-346.3-4"/>
    <path stroke="#2757ff" d="M74 326.5q131.4 1 333.3 0"/>
    <path stroke="#386bff" d="M392.2 370.2q-141.5 5-358.3-.9"/>
    <path stroke="#396dff" d="M62.6 366.8q61.8-.8 310.2-.7"/>
    <path stroke="#ff7a00" d="M305.4 177.5q-63.4-39.2-181.2 67.8"/>
    <path stroke="#234dff" d="M394.4 380.5Q213.6 230.5 11.8 409"/>
    <path stroke="#2e5fff" d="M33.6 342.4q99.6-4.2 332.7-4.1"/>
    <path stroke="#ff00df" d="M281.9 187.4q-128.2 70.4-177.6 52"/>
    <path stroke="#f47c00" d="M104 246q154-69.8 223.5-136.2"/>
    <path stroke="#3160ff" d="M402 379.8q-188.6-4.8-424.8-5.1"/>
    <path stroke="#6d9fd6" d="M446.7 153q-15.6-54.2-411 72.2"/>
    <path stroke="#2049ff" d="M423.4 398.7q-175.8-177-399.8-6.4"/>
    <path stroke="#2553ff" d="M51.8 329.9q7.4-12.6 323.2-9.4"/>
    <path stroke="#3d73ff" d="M90.9 355.5q82 2.5 300.8.4"/>
    <path stroke="#d700f9" d="M225.2 201.3Q187.8 284.3-26 188"/>
    <path stroke="#2a55ff" d="M-26 365q128-11.4 479.1 0"/>
    <path stroke="#3162ff" d="M383.6 346.8q-177.6-2.2-333-3.1"/>
    <path stroke="#ffbd1b" d="M334.6 153.5q-101.4-34.4-143.2 41"/>
    <path stroke="#f18900" d="M131.9 221.8q76.8-39.3 195.9-101.6"/>
    <path stroke="#244cff" d="M416.5 387q-58-152.8-396.3 14"/>
    <path stroke="#3563ff" d="M436.8 372q-45.1 3.7-377.2.9"/>
    <path stroke="#f35d00" d="M117 229q112-53.7 204.8-75.7"/>
    <path stroke="#224cff" d="M44.2 374.1q200.2-138.8 315 .6"/>
    <path stroke="#88b3ee" d="M32.7 215.1q211.3-30.9 235.1-64"/>
    <path stroke="#2755ff" d="M17.7 331.2q35 1 345.2 3.8"/>
    <path stroke="#305cff" d="M55 409q130.9-174.8 323.6 0"/>
    <path stroke="#ffb600" d="M209.5 220.1q-35.6-65.5 71.5-81.8"/>
    <path stroke="#3768ff" d="M367.4 379.3q-187.3 2.2-312.9-1.8"/>
    <path stroke="#3663ff" d="M89.8 383q88-73.5 299.2 1.3"/>
    <path stroke="#e400af" d="M318.4 158.5Q147 284 27 215"/>
    <path stroke="#244eff" d="M43.5 313.3q10.8 19 355.1 7.9"/>
    <path stroke="#305bff" d="M390.4 352q-310.7-2.8-337.6-1.7"/>
    <path stroke="#254eff" d="M456 331.5Q435.3 330 39.4 330"/>
    <path stroke="#224bff" d="M389 321.9q-209-40.2-329 52"/>
    <path stroke="#3b6cff" d="M90.3 363.7q260.5.8 295-2.7"/>
    <path stroke="#2852ff" d="M410.7 336.9q-71.9 5.5-365.8-4"/>
    <path stroke="#224cff" d="M406.9 324.4q-275.7-2.9-346-12.8"/>
    <path stroke="#3462ff" d="M456 370.9q-311.5-3.8-380.6-1.5"/>
    <path stroke="#ffcf00" d="M298.2 138.3q-29.9 43-116.4 45.4"/>
    <path stroke="#1f49ff" d="M55.3 364.5Q134 284.4 372 315.3"/>
    <path stroke="#991aff" d="M214.1 170.6q-176.4 89.2-238.3 6.2"/>
    <path stroke="#e63920" d="M280.7 129.9q-136 96.1-211 112.4"/>
    <path stroke="#305bff" d="M80.6 361.8q172.6 1.7 354.3-7.4"/>
    <path stroke="#43ffff" d="M435 118.2q-40.2 37.4-99.4 16.7"/>
    <path stroke="#3664ff" d="M365.3 382.4q-209.5 0-302.8-.4"/>
    <path stroke="#fd3b00" d="M256.1 139.4Q120.8 272 70.6 233.3"/>
    <path stroke="#305dff" d="M407.8 343.2q-109.6-1.1-318 5.3"/>
    <path stroke="#2149ff" d="M56.5 348.4q169.5-112.6 337.6 54"/>
    <path stroke="#2954ff" d="M86 311.3q249.4-3.1 269 95.6"/>
    <path stroke="#7414ff" d="M180 191.2Q-19.3 265-26 139"/>
    <path stroke="#2d56ff" d="M412.6 371.2q-12.8-.7-438.6.4"/>
    <path stroke="#fff200" d="M317.5 121.3q-54.8 41.1-115.6 74"/>
    <path stroke="#264fff" d="M346.1 389.6Q202.3 237.7 54.5 362.3"/>
    <path stroke="#06ffff" d="M431.9 121.3q.8 26.2-89.7 13.6"/>
    <path stroke="#e800d9" d="M71.9 200.8q31 83.3 211.7-7.8"/>
    <path stroke="#03b9ff" d="M39 211.1q64-12.6 134.4-14.6"/>
    <path stroke="#f7001b" d="M217.6 146.5q-81 136.1-185.5 75.1"/>
    <path stroke="#2f57ff" d="M412.4 399.8Q250.5 276.3 9.8 409"/>
    <path stroke="#7031ff" d="M193.5 185.2Q40.6 235 3.7 199"/>
    <path stroke="#2249ff" d="M396.8 377.5Q162.2 210.7 92.4 409"/>
    <path stroke="#3561ff" d="M84.8 376.7q173.9-.7 341 8.5"/>
    <path stroke="#eba300" d="M307.4 133.6Q191 135 214.3 223.4"/>
    <path stroke="#214bff" d="M58.4 331q259-90.5 267.1 67.6"/>
    <path stroke="#9208d6" d="M373.5 129Q152.2 301.2-4 194.5"/>
    <path stroke="#305bff" d="M417.7 409q-93.5-78.9-388-49.2"/>
    <path stroke="#c60000" d="M313.4 171q-129.3 60.2-235 71.5"/>
    <path stroke="#fff200" d="M218.3 195q-13.4-45.5 60.6-54.2"/>
    <path stroke="#3057ff" d="M354.6 392.6Q273.3 251 41.9 409"/>
    <path stroke="#3864ff" d="M357.5 350q-245.3-14.7-289.9 59"/>
    <path stroke="#0ff9ff" d="M336 144.6q41.4-11.7 107.8-13.2"/>
    <path stroke="#2047ff" d="M60.7 340.3q11.7-41 320.4-19.2"/>
    <path stroke="#f300d8" d="M71.3 211.2q54.2 70.3 190.1-16.3"/>
    <path stroke="#3763ff" d="M356.9 364.3q-65.6-.8-319 0"/>
    <path stroke="#f34700" d="M303.5 179.3q-131.2-6.6-153.3 52"/>
    <path stroke="#d9f100" d="M190.2 188q41-.2 99.1-65.6"/>
    <path stroke="#325cff" d="M110.9 383.2Q162 252.7 382.7 409"/>
    <path stroke="#2a51ff" d="M47.1 335.1q317.9 11 360-.2"/>
    <path stroke="#2349ff" d="M58.8 361.7q228.6-139 272.5 22.6"/>
    <path stroke="#1085ff" d="M33.1 212.5Q95.7 195.7 175 195"/>
    <path stroke="#325aff" d="M104.3 394.4Q212.6 243.3 326 383.1"/>
    <path stroke="#ff07aa" d="M223.6 150.8q-84.5 86-117.2 82.2"/>
    <path stroke="#2e55ff" d="M64.6 373.7q386 2.6 387.7 6.6"/>
    <path stroke="#1e47fb" d="M346 367.8Q288.4 249.2 75.3 322"/>
    <path stroke="#315cff" d="M403.2 348.8q-45.9 7.9-323.4 4"/>
    <path stroke="#264bff" d="M347 348.7q-188.8-90.8-271.9 34"/>
    <path stroke="#2d54ff" d="M83.1 281.3q-3.7 116.5 332.2 78"/>
    <path stroke="#df4200" d="M309.7 160Q189.2 192.1 123 228.3"/>
    <path stroke="#1dfcff" d="M456 117.7Q435.5 128 344 149"/>
    <path stroke="#950eff" d="M-.3 202q124.2 44.9 216.2-38"/>
    <path stroke="#ea0000" d="M134.4 238q73.7-44.7 106.7-140"/>
  </g>
</svg>
