<svg xmlns="http://www.w3.org/2000/svg" viewBox="0 0 1362 1070">
  <path fill="#" d="M0 0h1362v1069H0z"/>
  <g fill-opacity=".5">
    <path fill="#ead1b9" d="M263.4 1034.8l835.2-846 239.5 963z"/>
    <path d="M98.4 1151.8L923.1-82.5-82.5 13.3z"/>
    <path d="M-82.5 880.5L800.7 737 130.3-82.5z"/>
    <path fill="#ffcba6" d="M992.2 614.5l319.3-271.3L641 353.8z"/>
    <path fill="#280000" d="M1332.7 587.9l111.8 287.3-526.7 122.4z"/>
    <path d="M247.4 1151.8L806-45.2-82.5 8z"/>
    <path fill="#c3dcdd" d="M1178.4 1151.8L300.6 992.2l186.2-223.4z"/>
    <path fill="#ac413b" d="M1348.7 353.8l-776.8-16L981.6-18.6z"/>
    <path d="M1093.3-55.9l351.2 10.7v659.7zM614.5 667.7L2.7-82.5 8 1151.8z"/>
    <path fill="#edfbf8" d="M1444.5 923l-133 228.8-79.8-175.5z"/>
    <path fill="#ff9abb" d="M609.2 380.4l287.3-282-165 74.5z"/>
    <path fill="#1f1000" d="M1189 321.9l-74.4-106.4L721 337.8z"/>
    <path d="M646.4-2.7l718.3-79.8 79.8 212.8z"/>
    <path fill="#521901" d="M768.8 210.2l-250 526.7L715.5 806z"/>
    <path fill="#dca286" d="M731.5 699.6l367.1 234.1 149-313.9z"/>
    <path fill="#673d23" d="M1444.5 449.6L720.9 619.8l441.6 16z"/>
    <path fill="#f95885" d="M1157.2 77.1l53.2 127.7-383-138.3z"/>
    <path fill="#3f3625" d="M1354 752.8l-324.5 383-117-218z"/>
    <path fill="#eec0a1" d="M784.7 337.8L742.2 556l500-79.8z"/>
    <path d="M321.9 1151.8l-404.4-122.3L306-82.5z"/>
    <path fill="#260000" d="M1167.8 859.2l175.6 63.9-21.3-564z"/>
    <path fill="#b7bdb7" d="M407 811.3l-53.2 340.5 537.4-372.4z"/>
    <path d="M784.7-82.5l-297.9 862L-82.5 23.8z"/>
    <path fill="#9b5741" d="M1338 380.4l-207.4 324.5L1237 194.2z"/>
    <path d="M1045.4 103.7L907.1-66.5 1237-2.7z"/>
    <path fill="#ff6e97" d="M944.4 8L837.9 162.3l165-101.1z"/>
    <path d="M1433.8-2.7l-377.7-79.8 329.8 494.8z"/>
    <path fill="#eabfac" d="M1072 321.9l-85 489.4L923 391z"/>
    <path fill="#944536" d="M603.9 401.7l-5.4 298L822 167.5z"/>
    <path d="M587.9 742.2l-638.4 260.7 633-1085.4z"/>
    <path fill="#5e260c" d="M1412.5 1125.2l32-446.9-292.7-457.5z"/>
    <path fill="#d6dbd3" d="M625.1 763.5L306 1008.2 428.3 806z"/>
    <path fill="#170000" d="M667.7 768.8L646.4 508l127.7 244.7z"/>
    <path d="M188.9-13.3l776.7-26.6-446.9 393.7z"/>
    <path fill="#c6a282" d="M1231.7 625.1l-32-218.1-282 21.3z"/>
    <path fill="#827b6c" d="M1157.2 1018.8L901.8 758.1l457.5 202.2z"/>
    <path fill="#2d1c0e" d="M880.5 550.7l-106.4 95.7 170.3-31.9z"/>
    <path fill="#110900" d="M1178.4 619.8l-164.9-10.6 122.4-42.6z"/>
    <path fill="#a2a7a1" d="M1157.2 1151.8l-846-138.3L694.3 806z"/>
    <path fill="#ff7cae" d="M1268.9 284.6l26.6 127.7-106.4-207.5z"/>
    <path fill="#b5926e" d="M859.2 923l-133-266 26.6-276.6z"/>
    <path d="M375 1066.7L-18.5 811.3v340.5z"/>
    <path fill="#030000" d="M992.2 933.7l-74.4-37.2 149 5.3z"/>
    <path fill="#d87695" d="M646.4 316.6l85.1-127.7-85 303.2z"/>
    <path fill="#080000" d="M1300.8 524l-133 314 101 58.5z"/>
    <path d="M524 651.7L61.3 870l223.4 154.3z"/>
    <path fill="#78371f" d="M1135.9 162.3L827.3 82.5l473.5 372.4z"/>
    <path fill="#b0b7b4" d="M1237 933.7l207.5 95.8-335.2 122.3z"/>
    <path fill="#7d6d5a" d="M1205 1151.8l-441.5-415 138.3 298z"/>
    <path fill="#e56f7c" d="M1093.3 82.5l58.5 180.9-5.3-207.5z"/>
    <path d="M1008.2 87.8L976.2-56l468.3 48z"/>
    <path fill="#ff9fc2" d="M832.6 125l85.2 5.3-170.3 63.9z"/>
    <path fill="#4d1907" d="M981.6 827.3l74.5-47.9-26.6 63.9z"/>
    <path fill="#eec1b1" d="M854 752.8l164.8 42.6-21.2-180.9z"/>
    <path d="M928.4 50.5L593.2 77.1l383-159.6z"/>
    <path fill="#5f3713" d="M683.7 449.6l164.9-298h138.3z"/>
    <path d="M1444.5-82.5v659.8l-298-596zM-13.3 593.2L-82.5 822l830-69.2z"/>
    <path fill="#150a00" d="M939 311.2l271.4 10.7-127.7-47.9z"/>
    <path fill="#5f1e0f" d="M1295.5 300.6l149 298-154.3 319.2z"/>
    <path fill="#a2a7a1" d="M385.7 869.9l-37.2 180.9 462.8 101z"/>
    <path fill="#953" d="M1178.4 279.3l-164.9-117L949.7 274z"/>
    <path fill="#622414" d="M673 811.3l-37.2-526.7-58.5 276.7z"/>
    <path fill="#c7c8c3" d="M689 944.4l-74.5-175.6-133 16z"/>
    <path fill="#e3a996" d="M1008.2 891.2l-133-63.9L790 667.7z"/>
    <path d="M843.3 119.7l-574.6 26.6L806-82.5z"/>
    <path fill="#f57090" d="M1013.5 93.1l-37.2-63.8-117 42.5z"/>
    <path d="M125 1151.8L428.3 806-82.5-34.6z"/>
    <path fill="#4a1b0e" d="M1056 141l74.6 32-127.7 79.7z"/>
    <path d="M231.4 1151.8L-82.5-82.5l744.9 329.9z"/>
    <path fill="#896541" d="M630.5 444.2l143.6 117L747.5 423z"/>
    <path fill="#e46b89" d="M1098.6 98.4l-133-16 207.5 90.5z"/>
    <path d="M1194.4 8l-127.7 90.4L939-34.6z"/>
    <path fill="#d17984" d="M1253 449.6l26.5-127.7 21.3 95.7z"/>
    <path fill="#896f4d" d="M1093.3 806l-53.2 228.8 202.2-372.4z"/>
    <path fill="#b17043" d="M907.1 268.7L763.5 242l106.4 69.1z"/>
    <path fill="#a97686" d="M667.7 667.7l-32-10.6 21.4 63.8z"/>
    <path fill="#e27d97" d="M678.3 353.8L790.1 141l-106.4 95.8z"/>
    <path fill="#e0b69c" d="M1040.1 566.6L795.4 385.7l340.5-58.5z"/>
    <path fill="#cfaa92" d="M827.3 699.6l-85.1-133 26.6 180.9z"/>
    <path fill="#daa790" d="M1162.5 705l-117 180.8 15.9-207.5z"/>
    <path fill="#c9605f" d="M965.6 45.2l-47.8 170.3L907 141z"/>
    <path fill="#5b3a28" d="M1151.8 667.7l21.3-26.6-85.1 21.3z"/>
    <path fill="#48210e" d="M869.9 151.6l-90.5 53.2 165 69.2z"/>
    <path fill="#723c2b" d="M848.6 683.7L811.3 641l90.5 32z"/>
    <path fill="#231602" d="M896.5 284.6L822 369.8l196.8-106.4z"/>
    <path fill="#9c3a2e" d="M1045.4 992.2l5.4-58.5-122.4-10.6z"/>
    <path d="M1189 194.2l255.5-21.3L1205-82.5zM380.4 1072l-415-5.3-37.2-324.5z"/>
    <path fill="#563317" d="M662.4 566.6L710.3 407l37.2 298z"/>
    <path fill="#bb7962" d="M1034.8 901.8L1141.2 790 939 896.5z"/>
    <path d="M1013.5 93.1L981.6-34.6h329.9z"/>
    <path d="M1002.9-45.2L907 55.8 651.7 40z"/>
    <path fill="#2e1a07" d="M1231.7 316.6l-74.5 10.6 63.8 58.5z"/>
    <path fill="#351908" d="M689 337.8l5.3 42.6 95.8-42.6z"/>
    <path fill="#e37f77" d="M827.3 151.6L779.4 125l63.9 90.5z"/>
    <path fill="#a7aaa4" d="M720.9 790l-266 314 558.6 16z"/>
    <path fill="#5d1d05" d="M1268.9 226.1l32 101.1-85.2-117z"/>
    <path fill="#505c4c" d="M1157.2 869.9v164.9l-170.3-5.3z"/>
    <path fill="#79867d" d="M1167.8 1109.3l63.9-212.8-250.1 234z"/>
    <path fill="#b4beb7" d="M306 1002.9l42.5-53.2 122.3 186.2z"/>
    <path fill="#d2825a" d="M1205 215.5l-69 42.5-10.7-21.2z"/>
    <path fill="#100" d="M1002.9 933.7l-69.2-26.6 127.7-5.3z"/>
    <path fill="#ff6e94" d="M843.3 61.2h42.5l-26.6 26.6z"/>
    <path fill="#9e7c64" d="M758.1 699.6l181 170.3-159.7-16z"/>
    <path fill="#623c2a" d="M832.6 625.1l-5.3-79.8 101 16z"/>
    <path fill="#a55b52" d="M694.3 423l-58.5-42.6L678.3 556z"/>
    <path fill="#4a4c48" d="M736.9 774.1l-69.2 26.6-85.1-37.2z"/>
    <path d="M572 768.8L-40 758l633.1-622.4z"/>
    <path fill="#491e08" d="M939 220.8l63.9 16-10.7-85.2z"/>
    <path fill="#e79666" d="M1002.9 231.4l-21.3 32-37.2-5.4z"/>
    <path fill="#494b3f" d="M545.3 1018.8l-53.2 133h-47.9z"/>
    <path fill="#d6ac8d" d="M896.5 556l-69.2-207.5-63.8 154.3z"/>
    <path fill="#7c3825" d="M1306.1 843.3l138.4-308.6-90.5-5.3z"/>
    <path fill="#bfc0ba" d="M497.4 774.1l10.7 260.7 159.6-196.9z"/>
    <path d="M-55.9 1061.4l622.5-324.5L24-82.5z"/>
    <path fill="#210a01" d="M816.7 587.9l74.5-5.3 42.5 37.2z"/>
    <path fill="#341107" d="M1338 433.6l-74.4 143.7 42.5-228.8z"/>
    <path d="M268.7 24l564 106.3L822-82.5z"/>
  </g>
</svg>
